<?xml version="1.0" encoding="UTF-8" standalone="no"?>
<!DOCTYPE svg PUBLIC "-//W3C//DTD SVG 1.1//EN" "http://www.w3.org/Graphics/SVG/1.1/DTD/svg11.dtd">
<svg xmlns:dc="http://purl.org/dc/elements/1.1/" xmlns="http://www.w3.org/2000/svg" xmlns:xl="http://www.w3.org/1999/xlink" version="1.1" viewBox="100 100 640 639" width="640" height="639">
  <defs/>
  <metadata> Produced by OmniGraffle 7.22.3\n2020-12-25 09:17:04 +0000</metadata>
  <g id="Canvas_1" fill-opacity="1" stroke-dasharray="none" fill="none" stroke="none" stroke-opacity="1">
    <title>Canvas 1</title>
    <g id="Canvas_1_Layer_1">
      <title>Layer 1</title>
      <g id="Group_11">
        <g id="Graphic_9">
          <path d="M 694.64335 419.47963 C 694.64335 570.9447 571.69184 693.72435 420.01025 693.72435 C 268.32867 693.72435 145.35665 570.9447 145.35665 419.47963 C 145.35665 268.0553 268.32867 145.27565 420.01025 145.27565 C 571.69184 145.27565 694.64335 268.0553 694.64335 419.47963 Z" stroke="#a3b2c7" stroke-linecap="butt" stroke-linejoin="miter" stroke-width="16"/>
        </g>
        <g id="Group_2">
          <g id="Graphic_8">
            <path d="M 503.0234 300.43342 C 503.0234 344.70593 466.32386 380.6136 421.06265 380.6136 C 375.80123 380.6136 339.10167 344.70593 339.10167 300.43342 C 339.10167 256.14045 375.80123 220.21252 421.06265 220.21252 C 466.32386 220.21252 503.0234 256.14045 503.0234 300.43342 Z" fill="#666"/>
          </g>
          <g id="Graphic_7">
            <path d="M 536.8009 393.28317 C 536.8009 438.8819 484.9801 475.85043 421.06265 475.85043 C 357.1655 475.85043 305.3447 438.8819 305.3447 393.28317 C 305.3447 347.64372 357.1655 310.67518 421.06265 310.67518 C 484.9801 310.67518 536.8009 347.64372 536.8009 393.28317 Z" fill="#666"/>
          </g>
          <g id="Graphic_6">
            <path d="M 436.1634 379.5527 C 436.1634 424.43734 406.22744 460.79376 369.30315 460.79376 C 332.35856 460.79376 302.44312 424.43734 302.44312 379.5527 C 302.44312 334.66808 332.35856 298.31166 369.30315 298.31166 C 406.22744 298.31166 436.1634 334.66808 436.1634 379.5527 Z" fill="#666"/>
          </g>
          <g id="Graphic_5">
            <path d="M 537.5569 379.5527 C 537.5569 424.43734 507.62114 460.79376 470.65584 460.79376 C 433.75206 460.79376 403.7958 424.43734 403.7958 379.5527 C 403.7958 334.66808 433.75206 298.31166 470.65584 298.31166 C 507.62114 298.31166 537.5569 334.66808 537.5569 379.5527 Z" fill="#666"/>
          </g>
          <g id="Graphic_4">
            <path d="M 438.90156 618.7875 L 406.39107 618.7875 L 406.39107 335.8514 L 438.90156 335.8514 L 438.90156 618.7875 Z" fill="#666"/>
          </g>
          <g id="Graphic_3">
            <path d="M 499.2635 391.3043 C 499.2635 408.2381 485.53185 421.9483 468.59206 421.9483 C 451.6523 421.9483 437.9206 408.2381 437.9206 391.3043 C 437.9206 374.41126 451.6523 360.6808 468.59206 360.6808 C 485.53185 360.6808 499.2635 374.41126 499.2635 391.3043 Z" fill="#a3b2c7"/>
          </g>
        </g>
        <g id="Graphic_10"/>
      </g>
    </g>
  </g>
</svg>
